<svg id="Groupe_6" data-name="Groupe 6" xmlns="http://www.w3.org/2000/svg" xmlns:xlink="http://www.w3.org/1999/xlink" width="24.211" height="21.547" viewBox="0 0 24.211 21.547">
  <defs>
    <clipPath id="clip-path">
      <rect id="Rectangle_84" data-name="Rectangle 84" width="24.211" height="21.547" fill="none"/>
    </clipPath>
  </defs>
  <g id="Groupe_6-2" data-name="Groupe 6" clip-path="url(#clip-path)">
    <path id="Tracé_1258" data-name="Tracé 1258" d="M258.54,250.8a.3.3,0,0,0-.424,0l-6.722,6.609-.317,2.807a.593.593,0,0,0,.662.65l2.855-.314,6.722-6.605.007-.007a.292.292,0,0,0-.007-.413Z" transform="translate(-239.667 -239.32)" fill="#3d5a68"/>
    <path id="Tracé_1259" data-name="Tracé 1259" d="M433.168,199.183l-.017-.017v0l-1.5-1.473a1.219,1.219,0,0,0-1.7,0l-1.09,1.07a.292.292,0,0,0-.007.413l.007.007,2.777,2.726a.3.3,0,0,0,.424,0l1.091-1.07a1.169,1.169,0,0,0,.017-1.652" transform="translate(-409.291 -188.379)" fill="#3d5a68"/>
    <path id="Tracé_1260" data-name="Tracé 1260" d="M3.313,3.312H15.185v8.136L18.5,7.9V2.236A2.239,2.239,0,0,0,16.262,0H2.237A2.239,2.239,0,0,0,0,2.236V19.309a2.24,2.24,0,0,0,2.237,2.237H8.88l.454-3.313H3.313Z" transform="translate(0 0.001)" fill="#3d5a68"/>
    <path id="Tracé_1261" data-name="Tracé 1261" d="M119.747,119.467h-5.521a1.45,1.45,0,0,0,0,2.9h5.521a1.45,1.45,0,0,0,0-2.9" transform="translate(-107.652 -114.039)" fill="#3d5a68"/>
    <path id="Tracé_1262" data-name="Tracé 1262" d="M119.747,216.11h-5.521a1.45,1.45,0,0,0,0,2.9h5.521a1.45,1.45,0,1,0,0-2.9" transform="translate(-107.652 -206.292)" fill="#3d5a68"/>
    <path id="Tracé_1263" data-name="Tracé 1263" d="M116.9,310.929h-2.676a1.45,1.45,0,0,0,0,2.9H116.9a1.45,1.45,0,0,0,0-2.9" transform="translate(-107.652 -296.803)" fill="#3d5a68"/>
  </g>
</svg>
