<svg xmlns="http://www.w3.org/2000/svg" width="27.554" height="27.554" viewBox="0 0 27.554 27.554">
  <path id="Excel_Icon" d="M0,24.493V3.062L15.9,0V27.554Zm7.989-9.547a3.092,3.092,0,0,0,.218.718l1.848,3.5,2.867,0L9.614,13.747l3.219-5.323H10.138L8.432,11.614c-.164.415-.277.726-.337.936H8.065a5.668,5.668,0,0,0-.322-.906L6.209,8.426H3.267L6.4,13.794,2.975,19.161H5.857l1.856-3.466a5.508,5.508,0,0,0,.248-.749Zm8.968,9.428v-3.18h3.18V19.076h-3.18V16.957h3.18v-2.12h-3.18V12.717h3.18V10.6h-3.18v-2.1h3.212V6.341H16.957V3.18h9.709a.907.907,0,0,1,.888.921V23.453a.907.907,0,0,1-.888.921Zm4.239-3.18h4.239V19.076H21.2Zm0-4.238h4.239v-2.12H21.2Zm0-4.239h4.239V10.6H21.2Zm0-4.239h4.239V6.358H21.2Z" fill="#fff"/>
</svg>
